REM DIRINDEX 1\2,1\3,1\4,1\5,1\6
REM DIRNAME folder01,folder02,folder03,folder04,folder05,folder06
TITLE ""
FILE "Disc4Track30.mp3" MP3
  TRACK 01 AUDIO
    TITLE "3:cjc030_06884"
    INDEX 01 00:00:00
  TRACK 02 AUDIO
    TITLE "0:"
    INDEX 01 00:01:13
  TRACK 03 AUDIO
    TITLE "4:cjc030_06885"
    INDEX 01 00:01:19
  TRACK 04 AUDIO
    TITLE "0:"
    INDEX 01 00:02:43
  TRACK 05 AUDIO
    TITLE "5:cjc030_06886"
    INDEX 01 00:02:53
  TRACK 06 AUDIO
    TITLE "0:"
    INDEX 01 00:03:68
  TRACK 07 AUDIO
    TITLE "3:cjc030_06887"
    INDEX 01 00:04:48
  TRACK 08 AUDIO
    TITLE "0:"
    INDEX 01 00:06:04
  TRACK 09 AUDIO
    TITLE "4:cjc030_06888"
    INDEX 01 00:06:12
  TRACK 10 AUDIO
    TITLE "0:"
    INDEX 01 00:07:17
  TRACK 11 AUDIO
    TITLE "5:cjc030_06889"
    INDEX 01 00:07:25
  TRACK 12 AUDIO
    TITLE "0:"
    INDEX 01 00:08:54
  TRACK 13 AUDIO
    TITLE "3:cjc030_06890"
    INDEX 01 00:09:38
  TRACK 14 AUDIO
    TITLE "0:"
    INDEX 01 00:10:61
  TRACK 15 AUDIO
    TITLE "4:cjc030_06891"
    INDEX 01 00:10:70
  TRACK 16 AUDIO
    TITLE "0:"
    INDEX 01 00:12:26
  TRACK 17 AUDIO
    TITLE "5:cjc030_06892"
    INDEX 01 00:12:34
  TRACK 18 AUDIO
    TITLE "0:"
    INDEX 01 00:13:59
  TRACK 19 AUDIO
    TITLE "3:cjc030_06893"
    INDEX 01 00:14:43
  TRACK 20 AUDIO
    TITLE "0:"
    INDEX 01 00:15:56
  TRACK 21 AUDIO
    TITLE "4:cjc030_06894"
    INDEX 01 00:15:64
  TRACK 22 AUDIO
    TITLE "0:"
    INDEX 01 00:17:12
  TRACK 23 AUDIO
    TITLE "5:cjc030_06895"
    INDEX 01 00:17:21
  TRACK 24 AUDIO
    TITLE "0:"
    INDEX 01 00:18:35
  TRACK 25 AUDIO
    TITLE "3:cjc030_06896"
    INDEX 01 00:19:16
  TRACK 26 AUDIO
    TITLE "0:"
    INDEX 01 00:20:34
  TRACK 27 AUDIO
    TITLE "4:cjc030_06897"
    INDEX 01 00:20:43
  TRACK 28 AUDIO
    TITLE "0:"
    INDEX 01 00:21:47
  TRACK 29 AUDIO
    TITLE "5:cjc030_06898"
    INDEX 01 00:21:57
  TRACK 30 AUDIO
    TITLE "0:"
    INDEX 01 00:22:74
  TRACK 31 AUDIO
    TITLE "3:cjc030_06899"
    INDEX 01 00:23:57
  TRACK 32 AUDIO
    TITLE "0:"
    INDEX 01 00:25:05
  TRACK 33 AUDIO
    TITLE "4:cjc030_06900"
    INDEX 01 00:25:15
  TRACK 34 AUDIO
    TITLE "0:"
    INDEX 01 00:26:38
  TRACK 35 AUDIO
    TITLE "5:cjc030_06901"
    INDEX 01 00:26:46
  TRACK 36 AUDIO
    TITLE "0:"
    INDEX 01 00:27:69
  TRACK 37 AUDIO
    TITLE "3:cjc030_06902"
    INDEX 01 00:28:47
  TRACK 38 AUDIO
    TITLE "0:"
    INDEX 01 00:29:64
  TRACK 39 AUDIO
    TITLE "4:cjc030_06903"
    INDEX 01 00:29:72
  TRACK 40 AUDIO
    TITLE "0:"
    INDEX 01 00:31:14
  TRACK 41 AUDIO
    TITLE "5:cjc030_06904"
    INDEX 01 00:31:20
  TRACK 42 AUDIO
    TITLE "0:"
    INDEX 01 00:32:37
  TRACK 43 AUDIO
    TITLE "3:cjc030_06905"
    INDEX 01 00:33:17
  TRACK 44 AUDIO
    TITLE "0:"
    INDEX 01 00:34:22
  TRACK 45 AUDIO
    TITLE "4:cjc030_06906"
    INDEX 01 00:34:28
  TRACK 46 AUDIO
    TITLE "0:"
    INDEX 01 00:35:21
  TRACK 47 AUDIO
    TITLE "5:cjc030_06907"
    INDEX 01 00:35:29
  TRACK 48 AUDIO
    TITLE "0:"
    INDEX 01 00:36:33
  TRACK 49 AUDIO
    TITLE "3:cjc030_06908"
    INDEX 01 00:37:16
  TRACK 50 AUDIO
    TITLE "0:"
    INDEX 01 00:38:55
  TRACK 51 AUDIO
    TITLE "4:cjc030_06909"
    INDEX 01 00:38:61
  TRACK 52 AUDIO
    TITLE "0:"
    INDEX 01 00:41:20
  TRACK 53 AUDIO
    TITLE "5:cjc030_06910"
    INDEX 01 00:41:28
  TRACK 54 AUDIO
    TITLE "0:"
    INDEX 01 00:42:70
  TRACK 55 AUDIO
    TITLE "3:cjc030_06911"
    INDEX 01 00:43:50
  TRACK 56 AUDIO
    TITLE "0:"
    INDEX 01 00:45:02
  TRACK 57 AUDIO
    TITLE "4:cjc030_06912"
    INDEX 01 00:45:12
  TRACK 58 AUDIO
    TITLE "0:"
    INDEX 01 00:46:06
  TRACK 59 AUDIO
    TITLE "5:cjc030_06913"
    INDEX 01 00:46:17
  TRACK 60 AUDIO
    TITLE "0:"
    INDEX 01 00:47:44
  TRACK 61 AUDIO
    TITLE "3:cjc030_06914"
    INDEX 01 00:48:26
  TRACK 62 AUDIO
    TITLE "0:"
    INDEX 01 00:49:49
  TRACK 63 AUDIO
    TITLE "4:cjc030_06915"
    INDEX 01 00:49:59
  TRACK 64 AUDIO
    TITLE "0:"
    INDEX 01 00:50:46
  TRACK 65 AUDIO
    TITLE "5:cjc030_06916"
    INDEX 01 00:50:56
  TRACK 66 AUDIO
    TITLE "0:"
    INDEX 01 00:52:06
  TRACK 67 AUDIO
    TITLE "3:cjc030_06917"
    INDEX 01 00:52:53
  TRACK 68 AUDIO
    TITLE "0:"
    INDEX 01 00:54:13
  TRACK 69 AUDIO
    TITLE "4:cjc030_06918"
    INDEX 01 00:54:17
  TRACK 70 AUDIO
    TITLE "0:"
    INDEX 01 00:56:33
  TRACK 71 AUDIO
    TITLE "5:cjc030_06919"
    INDEX 01 00:56:41
  TRACK 72 AUDIO
    TITLE "0:"
    INDEX 01 00:57:72
  TRACK 73 AUDIO
    TITLE "3:cjc030_06920"
    INDEX 01 00:58:52
  TRACK 74 AUDIO
    TITLE "0:"
    INDEX 01 01:00:06
  TRACK 75 AUDIO
    TITLE "4:cjc030_06921"
    INDEX 01 01:00:15
  TRACK 76 AUDIO
    TITLE "0:"
    INDEX 01 01:02:44
  TRACK 77 AUDIO
    TITLE "5:cjc030_06922"
    INDEX 01 01:02:54
  TRACK 78 AUDIO
    TITLE "0:"
    INDEX 01 01:04:07
  TRACK 79 AUDIO
    TITLE "3:cjc030_06923"
    INDEX 01 01:04:60
  TRACK 80 AUDIO
    TITLE "0:"
    INDEX 01 01:06:06
  TRACK 81 AUDIO
    TITLE "4:cjc030_06924"
    INDEX 01 01:06:16
  TRACK 82 AUDIO
    TITLE "0:"
    INDEX 01 01:07:14
  TRACK 83 AUDIO
    TITLE "5:cjc030_06925"
    INDEX 01 01:07:23
  TRACK 84 AUDIO
    TITLE "0:"
    INDEX 01 01:08:44
